<svg width="228" height="85" viewBox="0 0 228 85" fill="none" xmlns="http://www.w3.org/2000/svg">
<path fill-rule="evenodd" clip-rule="evenodd" d="M87.1072 79.1548C87.1072 82.2374 89.6061 84.7363 92.6887 84.7363H128.773C131.856 84.7363 134.355 82.2374 134.355 79.1548V18.7734H152.563C155.645 18.7734 158.144 16.2744 158.144 13.1919C158.144 10.1093 155.645 7.6104 152.563 7.6104H128.773C125.691 7.6104 123.192 10.1093 123.192 13.1919V73.5734H92.6887C89.6061 73.5734 87.1072 76.0723 87.1072 79.1548Z" fill="#D73977"/>
<path d="M0.718994 40.7214C1.31295 40.5268 2.03492 40.3527 2.88489 40.1991C3.7451 40.0353 4.67188 39.9021 5.66523 39.7997C6.65857 39.6871 7.68775 39.6052 8.75278 39.554C9.82805 39.4925 10.8726 39.4618 11.8864 39.4618C13.6785 39.4618 15.2505 39.6717 16.6022 40.0916C17.954 40.5012 19.0805 41.1566 19.9816 42.0578C20.8931 42.9487 21.5741 44.1008 22.0247 45.514C22.4855 46.9272 22.7159 48.6323 22.7159 50.6292C22.7159 52.493 22.4496 54.1059 21.9171 55.4679C21.3949 56.8197 20.6626 57.941 19.7205 58.832C18.7784 59.7229 17.6621 60.3834 16.3718 60.8135C15.0815 61.2436 13.6734 61.4587 12.1476 61.4587H4.88181C4.42099 61.4587 4.10353 61.3614 3.92944 61.1668C3.76559 60.962 3.68366 60.6395 3.68366 60.1991L3.71438 41.8888C3.15115 41.8991 2.65448 41.9093 2.22437 41.9196C1.84547 41.9298 1.5024 41.94 1.19518 41.9503C0.887965 41.9503 0.729235 41.9503 0.718994 41.9503V40.7214ZM7.30885 59.2928C7.65703 59.3338 8.03081 59.3696 8.4302 59.4003C8.76814 59.4311 9.14704 59.4567 9.56691 59.4771C9.99702 59.4976 10.4271 59.5079 10.8572 59.5079C12.1271 59.5079 13.2535 59.344 14.2366 59.0163C15.2197 58.6886 16.0441 58.1715 16.7098 57.4649C17.3856 56.748 17.8926 55.8263 18.2305 54.6999C18.5787 53.5734 18.7528 52.2165 18.7528 50.6292C18.7528 49.1546 18.6401 47.8489 18.4148 46.7122C18.1895 45.5652 17.8004 44.6026 17.2474 43.8243C16.7046 43.046 15.9724 42.4572 15.0508 42.0578C14.1291 41.6482 12.9719 41.4434 11.5792 41.4434C11.0364 41.4434 10.5039 41.4587 9.98166 41.4894C9.46962 41.5202 9.0088 41.556 8.59917 41.597C8.19979 41.6277 7.87721 41.6533 7.63143 41.6738C7.39589 41.6943 7.27301 41.7045 7.26277 41.7045L7.30885 59.2928Z" fill="#EFEFEF"/>
<path d="M24.8904 46.1438C25.1055 46.0517 25.4076 45.9646 25.7967 45.8827C26.1858 45.8008 26.6108 45.7342 27.0717 45.683C27.5427 45.6318 28.0189 45.5908 28.5002 45.5601C28.9918 45.5294 29.4372 45.514 29.8366 45.514C30.0517 45.514 30.2411 45.5191 30.405 45.5294C30.5688 45.5396 30.7071 45.5703 30.8197 45.6215C30.9324 45.6727 31.0143 45.7547 31.0655 45.8673C31.1269 45.9697 31.1577 46.1233 31.1577 46.3281V50.0148L33.1085 47.2344C33.6001 46.5586 34.1428 46.0619 34.7368 45.7444C35.341 45.4167 36.022 45.2529 36.7798 45.2529C36.9129 45.2529 37.0819 45.2631 37.2867 45.2836C37.5018 45.2938 37.7066 45.3297 37.9011 45.3911C38.106 45.4526 38.28 45.5396 38.4234 45.6523C38.5668 45.7649 38.6385 45.9185 38.6385 46.1131C38.6385 46.1643 38.6385 46.2053 38.6385 46.236C38.6385 46.2667 38.6282 46.3077 38.6077 46.3589L37.9472 48.5248C37.5581 48.4019 37.2048 48.3148 36.8873 48.2636C36.5801 48.2124 36.2934 48.1868 36.0271 48.1868C35.4741 48.1868 34.9467 48.3456 34.4449 48.663C33.9431 48.9702 33.4823 49.3389 33.0624 49.769C32.6426 50.1889 32.2688 50.619 31.9411 51.0593C31.6236 51.4894 31.3625 51.8223 31.1577 52.0578V56.8351C31.1577 57.47 31.173 58.0281 31.2038 58.5094C31.2345 58.9907 31.2703 59.4106 31.3113 59.769C31.3625 60.1274 31.4137 60.4295 31.4649 60.6753C31.5161 60.9108 31.5571 61.1003 31.5878 61.2436C31.4444 61.3256 31.2806 61.3973 31.0962 61.4587C30.9221 61.5099 30.7327 61.556 30.5279 61.597C30.3333 61.6482 30.1336 61.684 29.9288 61.7045C29.7342 61.725 29.555 61.7352 29.3912 61.7352C29.1249 61.7352 28.8843 61.7096 28.6692 61.6584C28.4541 61.6174 28.2647 61.5406 28.1008 61.428C27.937 61.3153 27.809 61.1668 27.7168 60.9825C27.6349 60.7879 27.5939 60.5473 27.5939 60.2605V47.2959H24.8904V46.1438Z" fill="#EFEFEF"/>
<path d="M50.091 60.1069C50.091 60.1069 50.0193 60.153 49.8759 60.2452C49.7428 60.3271 49.5534 60.4346 49.3076 60.5678C49.072 60.7009 48.7904 60.8494 48.4627 61.0132C48.1453 61.1668 47.792 61.3153 47.4028 61.4587C47.0239 61.5918 46.6245 61.7045 46.2047 61.7966C45.795 61.8888 45.3803 61.9349 44.9604 61.9349C44.2948 61.9349 43.6599 61.8427 43.0557 61.6584C42.4515 61.4843 41.919 61.2078 41.4581 60.8289C41.0075 60.45 40.644 59.9738 40.3675 59.4003C40.1012 58.8269 39.9681 58.1407 39.9681 57.342C39.9681 56.4613 40.1627 55.7137 40.5518 55.0993C40.9512 54.4848 41.4991 53.9882 42.1954 53.6092C42.9021 53.2201 43.7418 52.9436 44.7146 52.7798C45.6875 52.6057 46.7577 52.5186 47.9251 52.5186H50.091V51.3665C50.091 50.7726 50.0654 50.2042 50.0142 49.6615C49.9732 49.1085 49.8657 48.6272 49.6916 48.2175C49.5278 47.8079 49.282 47.4802 48.9543 47.2344C48.6368 46.9887 48.2067 46.8658 47.664 46.8658C47.1417 46.8658 46.6194 46.9631 46.0971 47.1576C45.5749 47.342 45.0628 47.5775 44.561 47.8642C44.0592 48.151 43.5779 48.4684 43.1171 48.8166C42.6563 49.1546 42.2364 49.4771 41.8575 49.7844L40.5979 48.0947C40.4443 47.9103 40.3675 47.7209 40.3675 47.5263C40.3675 47.1884 40.5774 46.8811 40.9973 46.6046C41.4274 46.3282 41.9599 46.0926 42.5948 45.898C43.24 45.6932 43.9312 45.5345 44.6686 45.4219C45.4059 45.3092 46.092 45.2529 46.7269 45.2529C47.6691 45.2529 48.56 45.3655 49.3997 45.5908C50.2395 45.8161 50.9717 46.1745 51.5964 46.6661C52.2313 47.1474 52.7331 47.7772 53.1017 48.5555C53.4704 49.3235 53.6547 50.2606 53.6547 51.3665V59.9226H56.3275V61.0747C56.1535 61.1668 55.9128 61.2539 55.6056 61.3358C55.3086 61.4177 54.9758 61.4894 54.6071 61.5509C54.2384 61.6123 53.8493 61.6584 53.4397 61.6891C53.0403 61.7198 52.6563 61.7352 52.2876 61.7352C52.0418 61.7352 51.7909 61.7198 51.5349 61.6891C51.2789 61.6584 51.0434 61.5867 50.8283 61.4741C50.6235 61.3717 50.4494 61.2283 50.306 61.044C50.1729 60.8494 50.1012 60.5882 50.091 60.2605V60.1069ZM46.0357 59.6615C46.3941 59.6615 46.8037 59.6154 47.2646 59.5232C47.7356 59.4208 48.1811 59.3133 48.601 59.2006C49.0925 59.0675 49.5892 58.9088 50.091 58.7244V54.408H47.5103C47.1212 54.408 46.6911 54.4439 46.22 54.5155C45.7592 54.5872 45.324 54.7255 44.9143 54.9303C44.515 55.1249 44.177 55.4014 43.9005 55.7598C43.624 56.1182 43.4858 56.5893 43.4858 57.173C43.4858 57.5417 43.5421 57.8796 43.6547 58.1868C43.7674 58.4838 43.9312 58.7449 44.1463 58.9702C44.3613 59.1853 44.6276 59.3542 44.9451 59.4771C45.2625 59.6 45.6261 59.6615 46.0357 59.6615Z" fill="#EFEFEF"/>
<path d="M61.6971 51.1361C61.6971 52.5084 61.9941 53.5836 62.5881 54.3619C63.182 55.13 64.0985 55.514 65.3377 55.514C66.5768 55.514 67.4933 55.13 68.0873 54.3619C68.6915 53.5836 68.9936 52.5084 68.9936 51.1361C68.9936 49.7639 68.6966 48.6989 68.1026 47.9411C67.5087 47.1832 66.587 46.8043 65.3377 46.8043C64.0985 46.8043 63.182 47.1832 62.5881 47.9411C61.9941 48.6989 61.6971 49.7639 61.6971 51.1361ZM59.5312 63.5324C59.9101 64.1059 60.3197 64.6128 60.7601 65.0532C61.2107 65.5038 61.7074 65.8827 62.2501 66.1899C62.7929 66.4971 63.3868 66.7275 64.032 66.8811C64.6874 67.045 65.3991 67.1269 66.1672 67.1269C66.5665 67.1269 67.0171 67.0962 67.5189 67.0347C68.031 66.9733 68.5123 66.8555 68.9629 66.6814C69.4134 66.5073 69.7923 66.2616 70.0996 65.9441C70.4068 65.6369 70.5604 65.2324 70.5604 64.7306C70.5604 64.3312 70.3863 64.0137 70.0381 63.7782C69.7002 63.5427 69.2496 63.3481 68.6864 63.1945C68.1334 63.0409 67.4984 62.918 66.7816 62.8258C66.0648 62.7337 65.3325 62.6313 64.585 62.5186C63.8374 62.406 63.1052 62.2677 62.3884 62.1039C61.6715 61.94 61.0315 61.7198 60.4682 61.4433C59.9152 61.1566 59.4647 60.7931 59.1165 60.3527C58.7785 59.9124 58.6096 59.3594 58.6096 58.6937C58.6096 58.2841 58.6864 57.941 58.84 57.6645C58.9936 57.3778 59.1882 57.1371 59.4237 56.9426C59.6592 56.748 59.9152 56.579 60.1917 56.4357C60.4682 56.2923 60.7294 56.154 60.9752 56.0209C60.074 55.5089 59.3623 54.8432 58.84 54.024C58.3279 53.1945 58.0719 52.2319 58.0719 51.1361C58.0719 50.2247 58.2563 49.4055 58.6249 48.6784C58.9936 47.9513 59.5056 47.3369 60.161 46.8351C60.8164 46.323 61.5845 45.9339 62.4652 45.6676C63.3459 45.3911 64.3034 45.2529 65.3377 45.2529C66.6382 45.2529 67.8159 45.4731 68.8707 45.9134C69.9255 46.3435 70.7754 46.9528 71.4206 47.7414L72.3269 46.6046C72.6648 46.195 72.9669 45.8622 73.2332 45.6062C73.5097 45.3399 73.7708 45.1351 74.0166 44.9917C74.2624 44.8484 74.503 44.7511 74.7386 44.6999C74.9843 44.6487 75.2506 44.6231 75.5374 44.6231C75.6705 44.6231 75.819 44.6436 75.9828 44.6845C76.1569 44.7152 76.3156 44.7716 76.459 44.8535C76.6024 44.9354 76.7253 45.0429 76.8277 45.1761C76.9301 45.299 76.9813 45.4526 76.9813 45.6369V47.7106C76.2747 47.7106 75.6756 47.7158 75.1841 47.726C74.6925 47.7362 74.2675 47.7823 73.9091 47.8642C73.5507 47.9359 73.2281 48.0537 72.9413 48.2175C72.6648 48.3814 72.3883 48.6118 72.1118 48.9088C72.2655 49.257 72.3832 49.6103 72.4651 49.9687C72.5573 50.3271 72.6034 50.7265 72.6034 51.1669C72.6034 52.0783 72.4191 52.8975 72.0504 53.6246C71.6818 54.3415 71.1697 54.9559 70.5143 55.4679C69.8692 55.98 69.1011 56.3742 68.2102 56.6507C67.3295 56.917 66.372 57.0501 65.3377 57.0501C64.7847 57.0501 64.2573 57.0143 63.7555 56.9426C63.2639 56.8709 62.7877 56.7634 62.3269 56.62C61.9378 56.8248 61.6306 57.045 61.4053 57.2805C61.18 57.5058 61.0673 57.7362 61.0673 57.9718C61.0673 58.3814 61.2465 58.6988 61.605 58.9241C61.9736 59.1392 62.4549 59.3082 63.0489 59.4311C63.6531 59.5539 64.3392 59.6461 65.1073 59.7076C65.8753 59.769 66.6536 59.8458 67.4421 59.938C68.2409 60.0301 69.0243 60.153 69.7923 60.3066C70.5604 60.4602 71.2414 60.6958 71.8354 61.0132C72.4396 61.3205 72.9209 61.725 73.2793 62.2268C73.6479 62.7285 73.8323 63.3737 73.8323 64.1622C73.8323 64.9815 73.6019 65.6932 73.141 66.2974C72.6802 66.9118 72.0709 67.4188 71.3131 67.8181C70.5553 68.2175 69.6899 68.5145 68.7171 68.7091C67.7442 68.9139 66.7458 69.0163 65.7217 69.0163C65.0048 69.0163 64.2829 68.9702 63.5558 68.878C62.839 68.7859 62.1426 68.6579 61.4667 68.494C60.7908 68.3302 60.161 68.1305 59.5773 67.8949C58.9936 67.6697 58.4867 67.4188 58.0566 67.1423C57.6265 66.876 57.2834 66.5893 57.0274 66.282C56.7816 65.9748 56.6587 65.6574 56.6587 65.3297C56.6587 65.1761 56.7099 65.0327 56.8123 64.8996C56.925 64.7664 57.0939 64.6282 57.3192 64.4848C57.5548 64.3517 57.8518 64.2032 58.2102 64.0393C58.5788 63.8857 59.0192 63.7168 59.5312 63.5324Z" fill="#EFEFEF"/>
<path d="M94.6857 53.6246C94.6857 54.874 94.4655 56.0107 94.0252 57.0347C93.5951 58.0588 92.996 58.9344 92.228 59.6615C91.4702 60.3886 90.5792 60.9518 89.5551 61.3512C88.5311 61.7403 87.4353 61.9349 86.2679 61.9349C85.08 61.9349 83.9689 61.7352 82.9346 61.3358C81.9105 60.9364 81.0196 60.3732 80.2618 59.6461C79.504 58.919 78.9049 58.0486 78.4645 57.0347C78.0242 56.0107 77.804 54.874 77.804 53.6246C77.804 52.365 78.0242 51.2232 78.4645 50.1991C78.9049 49.1648 79.504 48.2841 80.2618 47.557C81.0196 46.8197 81.9105 46.2513 82.9346 45.852C83.9689 45.4526 85.08 45.2529 86.2679 45.2529C87.4456 45.2529 88.5464 45.4526 89.5705 45.852C90.5946 46.2513 91.4855 46.8197 92.2433 47.557C93.0011 48.2841 93.5951 49.1648 94.0252 50.1991C94.4655 51.2232 94.6857 52.365 94.6857 53.6246ZM81.5982 53.5939C81.5982 54.4643 81.6647 55.3041 81.7979 56.1131C81.931 56.9221 82.1716 57.6389 82.5198 58.2636C82.8782 58.8781 83.3544 59.3696 83.9484 59.7383C84.5526 60.1069 85.3258 60.2913 86.2679 60.2913C87.1998 60.2913 87.9627 60.1069 88.5567 59.7383C89.1609 59.3696 89.632 58.8781 89.9699 58.2636C90.3181 57.6389 90.5587 56.9221 90.6919 56.1131C90.825 55.3041 90.8916 54.4643 90.8916 53.5939C90.8916 52.7234 90.825 51.8837 90.6919 51.0747C90.5587 50.2657 90.3181 49.554 89.9699 48.9395C89.632 48.3148 89.1609 47.8182 88.5567 47.4495C87.9627 47.0808 87.1998 46.8965 86.2679 46.8965C85.3258 46.8965 84.5526 47.0808 83.9484 47.4495C83.3544 47.8182 82.8782 48.3148 82.5198 48.9395C82.1716 49.554 81.931 50.2657 81.7979 51.0747C81.6647 51.8837 81.5982 52.7234 81.5982 53.5939Z" fill="#EFEFEF"/>
<path d="M99.2719 47.2652H96.5684V46.1131C96.7834 46.0209 97.0855 45.9339 97.4747 45.852C97.8638 45.77 98.2888 45.7035 98.7496 45.6523C99.2207 45.6011 99.6969 45.5601 100.178 45.5294C100.67 45.4987 101.115 45.4833 101.515 45.4833C101.73 45.4833 101.919 45.4884 102.083 45.4987C102.247 45.5089 102.385 45.5396 102.498 45.5908C102.61 45.642 102.692 45.724 102.743 45.8366C102.805 45.939 102.836 46.0926 102.836 46.2974V47.0501C102.989 46.9989 103.271 46.876 103.68 46.6815C104.1 46.4869 104.607 46.2872 105.201 46.0824C105.795 45.8673 106.445 45.6779 107.152 45.514C107.859 45.3399 108.581 45.2529 109.318 45.2529C110.209 45.2529 110.931 45.3758 111.484 45.6215C112.037 45.8673 112.467 46.2104 112.774 46.6507C113.081 47.0808 113.286 47.5929 113.389 48.1868C113.501 48.7808 113.558 49.4311 113.558 50.1377V59.9226H116.23V61.0747C116.056 61.1668 115.816 61.2539 115.508 61.3358C115.211 61.4177 114.879 61.4894 114.51 61.5509C114.141 61.6123 113.757 61.6584 113.358 61.6891C112.958 61.7198 112.574 61.7352 112.206 61.7352C111.888 61.7352 111.597 61.7147 111.33 61.6738C111.064 61.643 110.834 61.5713 110.639 61.4587C110.444 61.3563 110.291 61.2129 110.178 61.0286C110.066 60.834 110.009 60.578 110.009 60.2605V50.4449C110.009 49.9226 109.978 49.4771 109.917 49.1085C109.866 48.7398 109.758 48.4377 109.594 48.2022C109.441 47.9667 109.221 47.7977 108.934 47.6953C108.657 47.5826 108.299 47.5263 107.859 47.5263C107.572 47.5263 107.254 47.5468 106.906 47.5877C106.568 47.6287 106.215 47.685 105.846 47.7567C105.488 47.8182 105.135 47.8847 104.786 47.9564C104.449 48.0281 104.136 48.0998 103.849 48.1715C103.573 48.2329 103.343 48.2892 103.158 48.3404C102.974 48.3916 102.866 48.4224 102.836 48.4326V56.8351C102.836 57.47 102.851 58.0281 102.882 58.5094C102.912 58.9907 102.948 59.4106 102.989 59.769C103.04 60.1274 103.092 60.4295 103.143 60.6753C103.194 60.9108 103.235 61.1003 103.266 61.2436C103.122 61.3256 102.959 61.3973 102.774 61.4587C102.6 61.5099 102.411 61.556 102.206 61.597C102.011 61.6482 101.812 61.684 101.607 61.7045C101.412 61.725 101.233 61.7352 101.069 61.7352C100.803 61.7352 100.562 61.7096 100.347 61.6584C100.132 61.6174 99.9426 61.5406 99.7788 61.428C99.6149 61.3153 99.4869 61.1668 99.3948 60.9825C99.3129 60.7879 99.2719 60.5473 99.2719 60.2605V47.2652Z" fill="#EFEFEF"/>
<path d="M142.209 57.7413C142.486 57.9462 142.819 58.1919 143.208 58.4787C143.607 58.7654 144.043 59.0419 144.514 59.3082C144.985 59.5642 145.481 59.7895 146.004 59.984C146.536 60.1684 147.074 60.2605 147.617 60.2605C147.954 60.2605 148.277 60.2145 148.584 60.1223C148.902 60.0199 149.183 59.8714 149.429 59.6768C149.675 59.4823 149.869 59.2467 150.013 58.9702C150.156 58.6835 150.228 58.3609 150.228 58.0025C150.228 57.5826 150.09 57.214 149.813 56.8965C149.547 56.579 149.214 56.2974 148.815 56.0516C148.426 55.8059 148.006 55.5908 147.555 55.4065C147.104 55.2119 146.705 55.0378 146.357 54.8842C145.753 54.618 145.149 54.3415 144.544 54.0547C143.95 53.768 143.413 53.43 142.931 53.0409C142.46 52.6415 142.071 52.1704 141.764 51.6277C141.467 51.0849 141.319 50.4193 141.319 49.6308C141.319 48.8422 141.513 48.1715 141.902 47.6185C142.302 47.0655 142.814 46.6149 143.438 46.2667C144.073 45.9083 144.78 45.6523 145.558 45.4987C146.336 45.3348 147.104 45.2529 147.862 45.2529C148.333 45.2529 148.83 45.2734 149.352 45.3143C149.885 45.3553 150.371 45.427 150.812 45.5294C151.262 45.6215 151.631 45.7444 151.918 45.898C152.215 46.0517 152.363 46.236 152.363 46.451C152.363 46.533 152.332 46.6405 152.271 46.7736L151.226 48.7859C151.032 48.663 150.766 48.5043 150.428 48.3097C150.1 48.1049 149.726 47.9103 149.306 47.726C148.886 47.5417 148.436 47.3829 147.954 47.2498C147.483 47.1167 147.002 47.0501 146.511 47.0501C145.804 47.0501 145.225 47.214 144.775 47.5417C144.324 47.8694 144.099 48.3353 144.099 48.9395C144.099 49.4106 144.232 49.8202 144.498 50.1684C144.765 50.5166 145.113 50.8289 145.543 51.1054C145.983 51.3717 146.48 51.6174 147.033 51.8427C147.596 52.0578 148.17 52.2831 148.753 52.5186C149.337 52.7542 149.905 53.0051 150.458 53.2713C151.022 53.5376 151.518 53.8499 151.948 54.2083C152.389 54.5565 152.742 54.9661 153.008 55.4372C153.274 55.898 153.408 56.4459 153.408 57.0808C153.408 57.982 153.213 58.7398 152.824 59.3542C152.435 59.9687 151.928 60.4705 151.303 60.8596C150.689 61.2385 149.997 61.5099 149.229 61.6738C148.472 61.8478 147.724 61.9349 146.987 61.9349C146.352 61.9349 145.676 61.8632 144.959 61.7198C144.242 61.5867 143.582 61.4177 142.978 61.2129C142.373 60.9979 141.872 60.7675 141.472 60.5217C141.083 60.2759 140.888 60.0455 140.888 59.8304C140.888 59.6973 140.919 59.5693 140.981 59.4464L142.209 57.7413Z" fill="#EFEFEF"/>
<path d="M157.717 47.2652H155.014V46.1131C155.229 46.0209 155.531 45.9339 155.92 45.852C156.309 45.77 156.734 45.7035 157.195 45.6523C157.666 45.6011 158.142 45.5601 158.624 45.5294C159.115 45.4987 159.561 45.4833 159.96 45.4833C160.175 45.4833 160.364 45.4884 160.528 45.4987C160.692 45.5089 160.83 45.5396 160.943 45.5908C161.056 45.642 161.138 45.724 161.189 45.8366C161.25 45.939 161.281 46.0926 161.281 46.2974V47.0501C161.435 46.9989 161.716 46.876 162.126 46.6815C162.546 46.4869 163.053 46.2872 163.647 46.0824C164.241 45.8673 164.891 45.6779 165.597 45.514C166.304 45.3399 167.026 45.2529 167.763 45.2529C168.654 45.2529 169.376 45.3758 169.929 45.6215C170.482 45.8673 170.912 46.2104 171.22 46.6507C171.527 47.0808 171.732 47.5929 171.834 48.1868C171.947 48.7808 172.003 49.4311 172.003 50.1377V59.9226H174.676V61.0747C174.502 61.1668 174.261 61.2539 173.954 61.3358C173.657 61.4177 173.324 61.4894 172.955 61.5509C172.587 61.6123 172.203 61.6584 171.803 61.6891C171.404 61.7198 171.02 61.7352 170.651 61.7352C170.334 61.7352 170.042 61.7147 169.776 61.6738C169.509 61.643 169.279 61.5713 169.084 61.4587C168.89 61.3563 168.736 61.2129 168.624 61.0286C168.511 60.834 168.455 60.578 168.455 60.2605V50.4449C168.455 49.9226 168.424 49.4771 168.362 49.1085C168.311 48.7398 168.204 48.4377 168.04 48.2022C167.886 47.9667 167.666 47.7977 167.379 47.6953C167.103 47.5826 166.744 47.5263 166.304 47.5263C166.017 47.5263 165.7 47.5468 165.352 47.5877C165.014 47.6287 164.66 47.685 164.292 47.7567C163.933 47.8182 163.58 47.8847 163.232 47.9564C162.894 48.0281 162.582 48.0998 162.295 48.1715C162.018 48.2329 161.788 48.2892 161.604 48.3404C161.419 48.3916 161.312 48.4224 161.281 48.4326V56.8351C161.281 57.47 161.296 58.0281 161.327 58.5094C161.358 58.9907 161.394 59.4106 161.435 59.769C161.486 60.1274 161.537 60.4295 161.588 60.6753C161.639 60.9108 161.68 61.1003 161.711 61.2436C161.568 61.3256 161.404 61.3973 161.22 61.4587C161.045 61.5099 160.856 61.556 160.651 61.597C160.457 61.6482 160.257 61.684 160.052 61.7045C159.858 61.725 159.678 61.7352 159.515 61.7352C159.248 61.7352 159.008 61.7096 158.793 61.6584C158.577 61.6174 158.388 61.5406 158.224 61.428C158.06 61.3153 157.932 61.1668 157.84 60.9825C157.758 60.7879 157.717 60.5473 157.717 60.2605V47.2652Z" fill="#EFEFEF"/>
<path d="M186.635 60.1069C186.635 60.1069 186.564 60.153 186.42 60.2452C186.287 60.3271 186.098 60.4346 185.852 60.5678C185.616 60.7009 185.335 60.8494 185.007 61.0132C184.69 61.1668 184.336 61.3153 183.947 61.4587C183.568 61.5918 183.169 61.7045 182.749 61.7966C182.339 61.8888 181.925 61.9349 181.505 61.9349C180.839 61.9349 180.204 61.8427 179.6 61.6584C178.996 61.4843 178.463 61.2078 178.002 60.8289C177.552 60.45 177.188 59.9738 176.912 59.4003C176.645 58.8269 176.512 58.1407 176.512 57.342C176.512 56.4613 176.707 55.7137 177.096 55.0993C177.495 54.4848 178.043 53.9882 178.74 53.6092C179.446 53.2201 180.286 52.9436 181.259 52.7798C182.232 52.6057 183.302 52.5186 184.469 52.5186H186.635V51.3665C186.635 50.7726 186.61 50.2042 186.558 49.6615C186.517 49.1085 186.41 48.6272 186.236 48.2175C186.072 47.8079 185.826 47.4802 185.499 47.2344C185.181 46.9887 184.751 46.8658 184.208 46.8658C183.686 46.8658 183.164 46.9631 182.641 47.1576C182.119 47.342 181.607 47.5775 181.105 47.8642C180.603 48.151 180.122 48.4684 179.661 48.8166C179.201 49.1546 178.781 49.4771 178.402 49.7844L177.142 48.0947C176.989 47.9103 176.912 47.7209 176.912 47.5263C176.912 47.1884 177.122 46.8811 177.542 46.6046C177.972 46.3282 178.504 46.0926 179.139 45.898C179.784 45.6932 180.475 45.5345 181.213 45.4219C181.95 45.3092 182.636 45.2529 183.271 45.2529C184.213 45.2529 185.104 45.3655 185.944 45.5908C186.784 45.8161 187.516 46.1745 188.141 46.6661C188.776 47.1474 189.277 47.7772 189.646 48.5555C190.015 49.3235 190.199 50.2606 190.199 51.3665V59.9226H192.872V61.0747C192.698 61.1668 192.457 61.2539 192.15 61.3358C191.853 61.4177 191.52 61.4894 191.151 61.5509C190.783 61.6123 190.394 61.6584 189.984 61.6891C189.585 61.7198 189.201 61.7352 188.832 61.7352C188.586 61.7352 188.335 61.7198 188.079 61.6891C187.823 61.6584 187.588 61.5867 187.373 61.4741C187.168 61.3717 186.994 61.2283 186.85 61.044C186.717 60.8494 186.645 60.5882 186.635 60.2605V60.1069ZM182.58 59.6615C182.938 59.6615 183.348 59.6154 183.809 59.5232C184.28 59.4208 184.725 59.3133 185.145 59.2006C185.637 59.0675 186.133 58.9088 186.635 58.7244V54.408H184.055C183.665 54.408 183.235 54.4439 182.764 54.5155C182.303 54.5872 181.868 54.7255 181.459 54.9303C181.059 55.1249 180.721 55.4014 180.445 55.7598C180.168 56.1182 180.03 56.5893 180.03 57.173C180.03 57.5417 180.086 57.8796 180.199 58.1868C180.312 58.4838 180.475 58.7449 180.691 58.9702C180.906 59.1853 181.172 59.3542 181.489 59.4771C181.807 59.6 182.17 59.6615 182.58 59.6615Z" fill="#EFEFEF"/>
<path d="M192.942 39.6615V38.4941C193.157 38.4019 193.459 38.3148 193.848 38.2329C194.247 38.151 194.678 38.0844 195.138 38.0332C195.599 37.982 196.07 37.9411 196.552 37.9103C197.043 37.8796 197.489 37.8643 197.888 37.8643C198.103 37.8643 198.293 37.8694 198.456 37.8796C198.62 37.8899 198.759 37.9206 198.871 37.9718C198.984 38.023 199.066 38.1049 199.117 38.2176C199.178 38.32 199.209 38.4736 199.209 38.6784V56.8351C199.209 58.0946 199.265 59.0726 199.378 59.769C199.491 60.4654 199.583 60.9569 199.655 61.2436C199.511 61.3256 199.347 61.3973 199.163 61.4587C198.979 61.5099 198.784 61.556 198.579 61.597C198.385 61.6482 198.185 61.684 197.98 61.7045C197.786 61.725 197.606 61.7352 197.443 61.7352C197.187 61.7352 196.946 61.7096 196.721 61.6584C196.506 61.6174 196.316 61.5406 196.152 61.428C195.999 61.3153 195.876 61.1668 195.784 60.9825C195.702 60.7879 195.661 60.5473 195.661 60.2605V39.6615H192.942ZM208.994 46.3896C208.994 46.7173 208.892 47.0655 208.687 47.4341C208.492 47.8028 208.226 48.1817 207.888 48.5709C207.56 48.9498 207.181 49.3338 206.751 49.7229C206.331 50.1121 205.891 50.491 205.43 50.8596C204.98 51.2181 204.534 51.5662 204.094 51.9042C203.654 52.2319 203.254 52.534 202.896 52.8105L207.765 59.0317L210.039 57.557L210.653 58.494C210.469 58.8422 210.202 59.2109 209.854 59.6C209.516 59.9789 209.137 60.3271 208.718 60.6446C208.308 60.962 207.883 61.2232 207.443 61.428C207.002 61.6328 206.598 61.7352 206.229 61.7352C205.994 61.7352 205.758 61.6789 205.522 61.5662C205.297 61.4536 205.092 61.2692 204.908 61.0132L199.87 54.5616C199.829 54.5104 199.793 54.4541 199.762 54.3927C199.69 54.2698 199.655 54.1315 199.655 53.9779C199.655 53.8653 199.68 53.7526 199.731 53.64C199.783 53.5171 199.87 53.3993 199.993 53.2867C200.208 53.0921 200.484 52.8566 200.822 52.5801C201.16 52.3036 201.513 52.0015 201.882 51.6738C202.261 51.3461 202.64 50.9979 203.019 50.6292C203.398 50.2503 203.735 49.8714 204.032 49.4925C204.34 49.1136 204.585 48.7347 204.77 48.3558C204.964 47.9769 205.062 47.6134 205.062 47.2652C205.062 46.9887 205.021 46.748 204.939 46.5432C205.461 46.2872 205.876 46.0773 206.183 45.9134C206.5 45.7393 206.756 45.6062 206.951 45.514C207.146 45.4116 207.315 45.345 207.458 45.3143C207.601 45.2734 207.765 45.2529 207.949 45.2529C208.298 45.2529 208.559 45.3655 208.733 45.5908C208.907 45.8059 208.994 46.0721 208.994 46.3896Z" fill="#EFEFEF"/>
<path d="M223.811 52.4879C223.872 52.2831 223.913 52.0783 223.933 51.8735C223.954 51.6686 223.964 51.4536 223.964 51.2283C223.964 50.7265 223.877 50.2247 223.703 49.7229C223.539 49.2109 223.293 48.7501 222.966 48.3404C222.648 47.9308 222.249 47.598 221.768 47.342C221.297 47.086 220.754 46.9579 220.139 46.9579C219.351 46.9579 218.69 47.1116 218.158 47.4188C217.635 47.7158 217.205 48.1203 216.867 48.6323C216.54 49.1341 216.299 49.7229 216.145 50.3988C215.992 51.0644 215.895 51.7608 215.854 52.4879H223.811ZM212.275 53.5939C212.275 52.3753 212.469 51.259 212.858 50.2452C213.258 49.2211 213.826 48.3404 214.563 47.6031C215.311 46.8658 216.222 46.2923 217.298 45.8827C218.373 45.4628 219.591 45.2529 220.953 45.2529C221.978 45.2529 222.894 45.4167 223.703 45.7444C224.512 46.0721 225.198 46.5125 225.761 47.0655C226.325 47.6185 226.755 48.2585 227.052 48.9856C227.349 49.7127 227.497 50.4705 227.497 51.259C227.497 51.6277 227.467 51.9963 227.405 52.365C227.344 52.7337 227.226 53.0665 227.052 53.3635C226.878 53.6605 226.632 53.9062 226.314 54.1008C225.997 54.2851 225.582 54.3773 225.07 54.3773H215.884C215.987 55.299 216.227 56.1131 216.606 56.8197C216.985 57.5263 217.472 58.1254 218.066 58.6169C218.66 59.0982 219.346 59.4618 220.124 59.7076C220.902 59.9533 221.742 60.0762 222.643 60.0762C223.258 60.0762 223.893 60.025 224.548 59.9226C225.203 59.81 225.879 59.641 226.576 59.4157L227.082 60.4449C226.663 60.7316 226.212 60.9774 225.731 61.1822C225.249 61.387 224.753 61.5509 224.241 61.6738C223.729 61.8069 223.206 61.9042 222.674 61.9656C222.141 62.0271 221.619 62.0578 221.107 62.0578C219.981 62.0578 218.885 61.8786 217.82 61.5201C216.765 61.172 215.823 60.6446 214.993 59.938C214.174 59.2314 213.514 58.3507 213.012 57.2959C212.52 56.2411 212.275 55.0071 212.275 53.5939Z" fill="#EFEFEF"/>
<path d="M188.034 82.011C187.627 82.122 187.206 82.1775 186.771 82.1775C186.272 82.1775 185.897 82.0365 185.648 81.7543C185.398 81.4676 185.273 81.0421 185.273 80.4779V75.4692H184.406V74.5605H185.321L185.689 72.8817H186.522V74.5605H187.909V75.4692H186.522V80.2073C186.522 80.5681 186.579 80.8224 186.695 80.9704C186.815 81.1138 187.021 81.1855 187.312 81.1855C187.47 81.1855 187.71 81.1531 188.034 81.0884V82.011Z" fill="#EFEFEF"/>
<path d="M190.06 78.5771C190.06 79.4373 190.238 80.101 190.594 80.5681C190.95 81.0352 191.47 81.2687 192.155 81.2687C192.696 81.2687 193.128 81.1601 193.452 80.9427C193.78 80.7253 194.002 80.4502 194.118 80.1172L195.214 80.4293C194.765 81.6133 193.746 82.2053 192.155 82.2053C191.045 82.2053 190.198 81.8746 189.616 81.2132C189.038 80.5519 188.748 79.5691 188.748 78.2649C188.748 77.0255 189.038 76.0751 189.616 75.4137C190.198 74.7524 191.028 74.4217 192.106 74.4217C193.211 74.4217 194.039 74.7547 194.59 75.4207C195.14 76.0866 195.415 77.0833 195.415 78.4106V78.5771H190.06ZM194.125 77.6198C194.055 76.8289 193.854 76.2531 193.521 75.8924C193.188 75.527 192.71 75.3444 192.085 75.3444C191.479 75.3444 190.998 75.5479 190.642 75.9548C190.291 76.3572 190.101 76.9122 190.073 77.6198H194.125Z" fill="#EFEFEF"/>
<path d="M198.925 82.2053C198.171 82.2053 197.605 82.0064 197.226 81.6087C196.846 81.2109 196.657 80.6652 196.657 79.9715C196.657 79.1945 196.911 78.5979 197.42 78.1817C197.933 77.7655 198.759 77.5435 199.897 77.5157L201.582 77.488V77.0787C201.582 76.4682 201.453 76.0311 201.194 75.7675C200.935 75.5039 200.528 75.3721 199.973 75.3721C199.413 75.3721 199.006 75.4669 198.752 75.6565C198.498 75.8462 198.345 76.1491 198.294 76.5653L196.99 76.4474C197.203 75.0969 198.206 74.4217 200.001 74.4217C200.944 74.4217 201.654 74.6391 202.13 75.0738C202.607 75.5039 202.845 76.1283 202.845 76.9469V80.1796C202.845 80.5496 202.893 80.8294 202.991 81.019C203.088 81.204 203.273 81.2965 203.546 81.2965C203.675 81.2965 203.811 81.2803 203.955 81.2479V82.0249C203.798 82.0619 203.638 82.0896 203.476 82.1081C203.314 82.1266 203.152 82.1359 202.991 82.1359C202.528 82.1359 202.19 82.0156 201.978 81.7752C201.77 81.53 201.652 81.1485 201.624 80.6305H201.582C201.263 81.204 200.891 81.611 200.465 81.8515C200.045 82.0873 199.531 82.2053 198.925 82.2053ZM201.582 78.3621L200.216 78.3898C199.633 78.3944 199.189 78.4545 198.884 78.5702C198.578 78.6812 198.345 78.8523 198.183 79.0835C198.021 79.3148 197.94 79.6177 197.94 79.9923C197.94 80.3993 198.049 80.7138 198.266 80.9358C198.488 81.1577 198.803 81.2687 199.21 81.2687C199.672 81.2687 200.079 81.1647 200.431 80.9566C200.787 80.7485 201.067 80.464 201.27 80.1033C201.478 79.7379 201.582 79.3633 201.582 78.9795V78.3621Z" fill="#EFEFEF"/>
<path d="M206.189 77.7169V82.0665H204.947V76.163C204.947 75.7236 204.942 75.3721 204.933 75.1085C204.928 74.8403 204.919 74.6576 204.905 74.5605H206.085C206.094 74.6622 206.103 74.7871 206.112 74.9351C206.122 75.0831 206.128 75.238 206.133 75.3999C206.138 75.5571 206.14 75.7051 206.14 75.8438H206.161C206.429 75.312 206.737 74.942 207.083 74.7339C207.43 74.5258 207.854 74.4217 208.353 74.4217C208.922 74.4217 209.37 74.535 209.699 74.7616C210.032 74.9883 210.263 75.349 210.393 75.8438H210.413C210.672 75.3397 210.985 74.9767 211.35 74.7547C211.72 74.5327 212.166 74.4217 212.689 74.4217C213.447 74.4217 213.998 74.6275 214.34 75.0391C214.687 75.4507 214.86 76.126 214.86 77.0648V82.0665H213.625V77.3076C213.625 76.5815 213.526 76.0797 213.327 75.8022C213.128 75.5247 212.77 75.386 212.252 75.386C211.706 75.386 211.281 75.5895 210.975 75.9965C210.675 76.3988 210.524 76.9723 210.524 77.7169V82.0665H209.29V77.3076C209.29 76.5815 209.19 76.0797 208.991 75.8022C208.792 75.5247 208.434 75.386 207.916 75.386C207.384 75.386 206.963 75.5895 206.653 75.9965C206.344 76.4034 206.189 76.9769 206.189 77.7169Z" fill="#EFEFEF"/>
<path d="M225.863 79.8536V82.0665H224.683V79.8536H220.077V78.8823L224.551 72.292H225.863V78.8685H227.236V79.8536H225.863ZM221.228 78.8685H224.683V74.9698C224.683 74.757 224.683 74.5466 224.683 74.3385C224.688 74.1257 224.697 73.913 224.711 73.7002C224.605 73.9037 224.512 74.0702 224.433 74.1997C224.355 74.3246 224.283 74.4333 224.218 74.5258L221.228 78.8685Z" fill="#EFEFEF"/>
<circle cx="147.04" cy="5.52416" r="5.52369" transform="rotate(-180 147.04 5.52416)" fill="#F4F4F4"/>
<mask id="mask0_3391_1263" style="mask-type:alpha" maskUnits="userSpaceOnUse" x="141" y="0" width="12" height="12">
<circle cx="147.04" cy="5.52416" r="5.52369" transform="rotate(-180 147.04 5.52416)" fill="#D9D9D9"/>
</mask>
<g mask="url(#mask0_3391_1263)">
<circle cx="151.555" cy="5.21756" r="2.32346" transform="rotate(-180 151.555 5.21756)" fill="#1E1E1E"/>
</g>
<circle cx="139.399" cy="5.52416" r="5.52369" transform="rotate(-180 139.399 5.52416)" fill="#F4F4F4"/>
<mask id="mask1_3391_1263" style="mask-type:alpha" maskUnits="userSpaceOnUse" x="133" y="0" width="12" height="12">
<circle cx="139.399" cy="5.52416" r="5.52369" transform="rotate(-180 139.399 5.52416)" fill="#D9D9D9"/>
</mask>
<g mask="url(#mask1_3391_1263)">
<circle cx="143.915" cy="5.21756" r="2.32346" transform="rotate(-180 143.915 5.21756)" fill="#1E1E1E"/>
</g>
<circle cx="131.702" cy="5.52416" r="5.52369" transform="rotate(-180 131.702 5.52416)" fill="#F4F4F4"/>
<mask id="mask2_3391_1263" style="mask-type:alpha" maskUnits="userSpaceOnUse" x="126" y="0" width="12" height="12">
<circle cx="131.702" cy="5.52416" r="5.52369" transform="rotate(-180 131.702 5.52416)" fill="#D9D9D9"/>
</mask>
<g mask="url(#mask2_3391_1263)">
<circle cx="136.217" cy="5.21756" r="2.32346" transform="rotate(-180 136.217 5.21756)" fill="#1E1E1E"/>
</g>
<path fill-rule="evenodd" clip-rule="evenodd" d="M117.259 13.3621C115.143 14.3317 114.214 16.8327 115.184 18.9482L122.188 34.2301C123.158 36.3457 125.659 37.2746 127.774 36.305C129.89 35.3354 130.819 32.8344 129.849 30.7189L122.845 15.4369C121.875 13.3214 119.374 12.3925 117.259 13.3621Z" fill="#F7D958"/>
<path fill-rule="evenodd" clip-rule="evenodd" d="M97.6082 16.2371C97.6082 18.5643 99.4947 20.4508 101.822 20.4508L118.377 20.4508C120.704 20.4508 122.591 18.5643 122.591 16.2371C122.591 13.91 120.704 12.0234 118.377 12.0234L101.822 12.0234C99.4947 12.0234 97.6082 13.91 97.6082 16.2371Z" fill="#F7D958"/>
<path fill-rule="evenodd" clip-rule="evenodd" d="M101.429 24.1971C101.429 26.5242 103.315 28.4107 105.642 28.4107L122.198 28.4107C124.525 28.4107 126.411 26.5242 126.411 24.1971C126.411 21.8699 124.525 19.9834 122.198 19.9834L105.642 19.9834C103.315 19.9834 101.429 21.8699 101.429 24.1971Z" fill="#F7D958"/>
<path fill-rule="evenodd" clip-rule="evenodd" d="M104.931 32.4744C104.931 34.8016 106.817 36.6881 109.145 36.6881L126.018 36.6881C128.346 36.6881 130.232 34.8016 130.232 32.4744C130.232 30.1473 128.346 28.2607 126.018 28.2607L109.145 28.2607C106.817 28.2607 104.931 30.1473 104.931 32.4744Z" fill="#F7D958"/>
</svg>
